PathFileType	4	(X/Y/Z)	/Users/niels/Desktop/University/Third Semester/Perception and Action/Exam/Gymnastics Motion Tracking/Code for Gym Tracking/Analyzed Data/Webcam_Backflip/id2_1_baseline_Sports2D/id2_1_baseline_Sports2D_px_person00.trc
DataRate	CameraRate	NumFrames	NumMarkers	Units	OrigDataRate	OrigDataStartFrame	OrigNumFrames
29.92207792207792	29.92207792207792	12	22	m	29.92207792207792	288	385
Frame#	Time	Hip			RHip			RKnee			RAnkle			RBigToe			RSmallToe			RHeel			LHip			LKnee			LAnkle			LBigToe			LSmallToe			LHeel			Neck			Head			Nose			RShoulder			RElbow			RWrist			LShoulder			LElbow			LWrist		
		X1	Y1	Z1	X2	Y2	Z2	X3	Y3	Z3	X4	Y4	Z4	X5	Y5	Z5	X6	Y6	Z6	X7	Y7	Z7	X8	Y8	Z8	X9	Y9	Z9	X10	Y10	Z10	X11	Y11	Z11	X12	Y12	Z12	X13	Y13	Z13	X14	Y14	Z14	X15	Y15	Z15	X16	Y16	Z16	X17	Y17	Z17	X18	Y18	Z18	X19	Y19	Z19	X20	Y20	Z20	X21	Y21	Z21	X22	Y22	Z22
288	9.625	0.8797399116121813	-0.4994981691956229	0.0	0.8835830506659649	-0.48995029159992387	0.0	0.9217353807244858	-0.7441612756081071	0.0	0.8002080921979937	-0.9836888607704003	0.0	0.8976279190304808	-1.0278781438738622	0.0	0.8668801749726378	-1.0394027472086815	0.0	0.7653675806961227	-1.0164929011748676	0.0	0.882632323658946	-0.4903529738205826	0.0	0.9725070097279246	-0.7160630688922166	0.0	1.0361930253252776	-0.9218784520148379	0.0	1.1431533450089744	-0.9519771537165558	0.0	1.127759716371129	-0.940275625070009	0.0	1.0159670583063682	-0.9564045997766392	0.0	0.9609558797610737	-0.1421767865875179	0.0	1.0194121870031954	0.015722966112917833	0.0	1.0310067038605555	-0.08143030776610383	0.0	0.9482551458015226	-0.20403559026187323	0.0	1.097806266188789	-0.2933594186463697	0.0	1.2906368532495212	-0.2928781989793964	0.0	0.9196478510524131	-0.1882303709147154	0.0	1.0121435925016646	-0.2833973916370456	0.0	1.0827844010960292	-0.3349626412885481	0.0
289	9.65842013888889	0.8804756205286398	-0.499282274363061	0.0	0.8854740904532847	-0.48930501970954027	0.0	0.9210108243813294	-0.7443530018868583	0.0	0.8004106181427109	-0.9832256593641936	0.0	0.8960512043110727	-1.0291979067508834	0.0	0.8646480783663472	-1.0407617116086032	0.0	0.7652181993760067	-1.0158299869602994	0.0	0.8813569533868012	-0.4897747217679294	0.0	0.9732002408554542	-0.7158773985497557	0.0	1.0358359147398113	-0.9222198866532748	0.0	1.1426518565713244	-0.9517699253850976	0.0	1.1268737940785625	-0.9399444653020872	0.0	1.0162420169523099	-0.9568911812544296	0.0	0.961437156758361	-0.1411915067897521	0.0	1.0194575318702954	0.016391655076243485	0.0	1.0316092942793118	-0.08011880068554224	0.0	0.9509731145751531	-0.20407430326092393	0.0	1.1061830254903937	-0.28268249296613296	0.0	1.295994081156696	-0.27444140687530383	0.0	0.9190287604895307	-0.18726406661133194	0.0	0.9755692873681541	-0.27973268012032226	0.0	1.082872120377368	-0.3356197914310829	0.0
290	9.691840277777777	0.881038206251362	-0.4991647767681087	0.0	0.8873311181800652	-0.4888556108571786	0.0	0.9203764473748322	-0.7446821424289695	0.0	0.8008871585416047	-0.9828487252693224	0.0	0.8948283540370082	-1.0307992675844186	0.0	0.8625956632360186	-1.0420693577189069	0.0	0.7650881668614166	-1.0149784902358887	0.0	0.8795868020870509	-0.4894697649420165	0.0	0.974027743862346	-0.7158279476166264	0.0	1.0357230736248695	-0.9228365343310246	0.0	1.1423335834510189	-0.9519402052649972	0.0	1.1264008915502313	-0.9400016182794751	0.0	1.0170682974579397	-0.9575279480936709	0.0	0.961864259057294	-0.14037836184302274	0.0	1.0193812860210358	0.01691318565008286	0.0	1.0321683995186615	-0.07892300799317081	0.0	0.9539313614559812	-0.20441924944537965	0.0	1.1139975960837174	-0.2726166354137777	0.0	1.3000874952299346	-0.25649281002958857	0.0	0.9174967358643956	-0.18652983877667256	0.0	0.9332025172826366	-0.28081270832477995	0.0	1.0830678893975132	-0.33631606406111686	0.0
291	9.725260416666666	0.8814999724790795	-0.49906363349009414	0.0	0.8889441237975998	-0.4884737792587586	0.0	0.9198883196186374	-0.745064860263627	0.0	0.8015156821217195	-0.98255538001993	0.0	0.8940868255283833	-1.0321081833570436	0.0	0.8611558428462269	-1.0429165362371076	0.0	0.7650710872438771	-1.0140762542459938	0.0	0.8779449561677207	-0.48932108657925344	0.0	0.9748378048226396	-0.7158549525264949	0.0	1.0357957389302945	-0.9235493706862167	0.0	1.1422597630617988	-0.9523935574841554	0.0	1.1264004805866998	-0.9402977749625969	0.0	1.0180606052126218	-0.958159326250095	0.0	0.9623695073560944	-0.1397539723977635	0.0	1.019270602543017	0.017238524121860038	0.0	1.0326681346591997	-0.07797531276846796	0.0	0.9568820255184763	-0.20461870113895075	0.0	1.1207872956893041	-0.26315304683027524	0.0	1.3029663655417045	-0.23901285663924074	0.0	0.9157202514438505	-0.18588400524716275	0.0	0.8954480151414805	-0.2873544386493888	0.0	1.0832955217575013	-0.33683994912388254	0.0
292	9.758680555555555	0.8819394079650933	-0.4988933109794516	0.0	0.8902650593784083	-0.48809675662241614	0.0	0.9194743072440201	-0.7454605902834307	0.0	0.8021421633449688	-0.9823929967201079	0.0	0.8938289822792134	-1.0328098711615936	0.0	0.8605852491680683	-1.0431839109972318	0.0	0.7652406177931528	-1.0132901912870012	0.0	0.8767295719585572	-0.48913041875821983	0.0	0.9754930289797669	-0.7159148667995405	0.0	1.035947172521467	-0.9241763152059239	0.0	1.142462928725556	-0.9529649574716506	0.0	1.126757021524043	-0.9406887957061189	0.0	1.0188245923384927	-0.9586759523770043	0.0	0.9630556053850404	-0.13931193008306736	0.0	1.0192476589549775	0.017405604967522983	0.0	1.033170310567366	-0.07738163129340828	0.0	0.9597126078557261	-0.20438270724921784	0.0	1.1264159361359425	-0.254255721279598	0.0	1.3047375739047682	-0.22201680898418671	0.0	0.9141948863645161	-0.18501801179047755	0.0	0.8691725981404307	-0.2989129934564839	0.0	1.0835404738662993	-0.33713697637375645	0.0
293	9.792100694444445	0.8824664413613061	-0.4985760205650418	0.0	0.891329229482883	-0.48769608370353773	0.0	0.9190104207084244	-0.7458235970049544	0.0	0.8026564401447308	-0.9824035923277327	0.0	0.8939786234302108	-1.0329066438318038	0.0	0.8608387557553042	-1.0430234714295445	0.0	0.7655753336853981	-1.0127540093490677	0.0	0.876065050451643	-0.48876188463023335	0.0	0.9759161315446985	-0.7159554661101077	0.0	1.0360729760086653	-0.9246182996745741	0.0	1.142903729455932	-0.953502947015739	0.0	1.1272772605076045	-0.9410254549193426	0.0	1.019153467335467	-0.9590345926189007	0.0	0.9639543139255607	-0.13896217095847754	0.0	1.0194392011471642	0.017561687629935607	0.0	1.0337443375269084	-0.07715615406719208	0.0	0.9622190436449052	-0.20356933833442944	0.0	1.131040604994962	-0.24581390225413602	0.0	1.305544129901218	-0.20563331854222694	0.0	0.9132369475471784	-0.18370615526639456	0.0	0.8549179792832279	-0.3129359197910033	0.0	1.08381098122614	-0.3372221241049182	0.0
294	9.825520833333334	0.8831609801061858	-0.49809272549426764	0.0	0.8921615117658102	-0.4873016003354433	0.0	0.918435374012248	-0.746137631685407	0.0	0.8029962595918851	-0.9825717678946416	0.0	0.8944021028621624	-1.0325803824922668	0.0	0.8615810982959206	-1.0426692347316897	0.0	0.7659727991853901	-1.0124769029939842	0.0	0.8760767491730246	-0.4882306867001378	0.0	0.9761343472712689	-0.7159194475248974	0.0	1.0360971781047588	-0.9248204965832065	0.0	1.1433781367716678	-0.9539077226962939	0.0	1.1277283458564682	-0.9411926061474386	0.0	1.0190695182569038	-0.9592090007452949	0.0	0.9650547902225605	-0.13858973341246122	0.0	1.0199238071587329	0.017849911790032834	0.0	1.0344452223492135	-0.07717377498576113	0.0	0.9642113592247942	-0.20221858775790877	0.0	1.1349140929853612	-0.23772138061227177	0.0	1.3056052768703685	-0.19007194325940024	0.0	0.9129938474718724	-0.18195691012456103	0.0	0.8494723374276029	-0.32565126619506324	0.0	1.084094131425934	-0.3371261133606135	0.0
295	9.858940972222221	0.8840183916531776	-0.4975312247187875	0.0	0.89283744049952	-0.48697007821341143	0.0	0.9178037108173377	-0.7464541772344	0.0	0.8031200894749944	-0.982858519593006	0.0	0.894941513838558	-1.032088069710152	0.0	0.8624163537417074	-1.042317372961162	0.0	0.7663075520637084	-1.0123911895313364	0.0	0.876634248785692	-0.48758052754125597	0.0	0.976267634870636	-0.7157786003357424	0.0	1.0359764208714168	-0.9247219278691775	0.0	1.1435876320688814	-0.9541032393079345	0.0	1.1278642848285534	-0.9411444463065722	0.0	1.0186929949006736	-0.9591589714549008	0.0	0.9663252592250191	-0.13812797264112392	0.0	1.0206781074703142	0.018313633453728533	0.0	1.0353432235134548	-0.07720924000239059	0.0	0.9658200724386605	-0.20056170295572637	0.0	1.138198185504633	-0.23005828950879736	0.0	1.305248146284556	-0.17565407264390398	0.0	0.913331802842816	-0.17993454976744408	0.0	0.8489401172308094	-0.3343056457154493	0.0	1.084309294970683	-0.33687768187555783	0.0
296	9.89236111111111	0.8849593227200052	-0.4970281718714659	0.0	0.8934916744883128	-0.48668377387652106	0.0	0.9172565121682321	-0.7467564808180345	0.0	0.8030437976133782	-0.9831867873864162	0.0	0.8954582093871116	-1.0316396129783807	0.0	0.8630959969225183	-1.0420740442116252	0.0	0.7664894857367881	-1.0124228463763976	0.0	0.8773173468862563	-0.4867785802236085	0.0	0.9764480156189164	-0.7154922514136806	0.0	1.0357338230732231	-0.9242882633768832	0.0	1.1433626082047732	-0.9540391956992823	0.0	1.1275595388107515	-0.9408857056792503	0.0	1.0181327375604985	-0.9588704464334236	0.0	0.9676927733791832	-0.1375668576196298	0.0	1.0215838275727676	0.018895236971058767	0.0	1.0364569511460735	-0.07705805089825997	0.0	0.9673616420496348	-0.19889211573702317	0.0	1.1409243006549792	-0.2231496295177239	0.0	1.3048772052996007	-0.1629095171411038	0.0	0.913939191268468	-0.17784577522588166	0.0	0.8503785346101126	-0.33785961010028515	0.0	1.0842652978012046	-0.33651798278025113	0.0
297	9.92578125	0.8858737242281284	-0.4966647258593941	0.0	0.89422876614438	-0.48636555629419786	0.0	0.9168985713842123	-0.7469355508805504	0.0	0.802863582861064	-0.9834170326319033	0.0	0.8958501251522085	-1.0313372931194815	0.0	0.8635243062652553	-1.0419663334758908	0.0	0.7664898065110931	-1.0124727367774111	0.0	0.8778062079299302	-0.4858173768630832	0.0	0.9767349402795846	-0.7150383571133236	0.0	1.0354843674015524	-0.9235835233070187	0.0	1.1427872464280766	-0.953740054769027	0.0	1.1269146216391581	-0.9404718009794576	0.0	1.0175207789304324	-0.9584152539285851	0.0	0.9690099737088491	-0.13694834451116714	0.0	1.0225162371477448	0.019468194573144998	0.0	1.037628527715956	-0.07666839034601836	0.0	0.9689775135911254	-0.19742098432480443	0.0	1.1431131046655312	-0.21745477506633237	0.0	1.3049366892729644	-0.15256247721264338	0.0	0.9145690405327238	-0.1759267319889359	0.0	0.8525738092252925	-0.3362427690369558	0.0	1.0836393322776972	-0.3361407700516254	0.0
298	9.95920138888889	0.8866733425589146	-0.496417214697122	0.0	0.8950605904157461	-0.4859522521804874	0.0	0.9167410922234394	-0.7469422733126583	0.0	0.8026856555422366	-0.9834168286061501	0.0	0.8960606403200057	-1.0312397931292814	0.0	0.8636534836027275	-1.0420049451895093	0.0	0.7663270968556845	-1.0124446056753142	0.0	0.8781445899237298	-0.48478546509525605	0.0	0.9771032992945317	-0.7145187941931348	0.0	1.0353703943575998	-0.9227866497255834	0.0	1.142124504051839	-0.9533446074510875	0.0	1.1261951976571092	-0.940052045755149	0.0	1.0170332387157373	-0.9579381649659992	0.0	0.9700570778212929	-0.13636445950082468	0.0	1.0233914146034768	0.019915596146771693	0.0	1.0385646794318644	-0.07616843997006907	0.0	0.9705506770740833	-0.19624583555777175	0.0	1.1449143439426779	-0.2134436122517011	0.0	1.305872703421815	-0.1454560609794895	0.0	0.9151305448779133	-0.17445616205228892	0.0	0.8561349341122001	-0.32999648493664424	0.0	1.082013182560911	-0.33594756913366014	0.0
299	9.992621527777777	0.8873227592363785	-0.49618214080474454	0.0	0.8958422661486014	-0.48538725846168657	0.0	0.9168279992303414	-0.7467771532689568	0.0	0.8025513286622278	-0.9831376668868581	0.0	0.8960811052260734	-1.0313939218996993	0.0	0.8634244284510703	-1.0422136420252455	0.0	0.7660309242660327	-1.01231788512305	0.0	0.878747675855636	-0.48378509867936875	0.0	0.97753970409025	-0.7141053756073119	0.0	1.0354683928757347	-0.9221212628728548	0.0	1.141640542441795	-0.9530516522129365	0.0	1.1256704012216128	-0.9398361948154295	0.0	1.0168018965437813	-0.9575706632729973	0.0	0.9706203255651253	-0.13591360964966276	0.0	1.024148502041001	0.020224029307566654	0.0	1.0390268516186767	-0.07572793835915181	0.0	0.9717226234699398	-0.19542050950431003	0.0	1.1465081289751196	-0.21161758969206126	0.0	1.3080145852373184	-0.14263919526207036	0.0	0.9157086293799915	-0.1736867643753063	0.0	0.8629778512886901	-0.32045999982888773	0.0	1.079020501671888	-0.33629643282164273	0.0
